<!--?xml version="1.0" standalone="no"?-->
              <svg id="sw-js-blob-svg" viewBox="0 0 100 100" xmlns="http://www.w3.org/2000/svg" version="1.1">
                    <defs> 
                        <linearGradient id="sw-gradient" x1="0" x2="1" y1="1" y2="0">
                            <stop id="stop1" stop-color="rgba(118, 154, 222, 1)" offset="0%"></stop>
                            <stop id="stop2" stop-color="rgba(75, 78, 228, 1)" offset="100%"></stop>
                        </linearGradient>
                    </defs>
                <path fill="url(#sw-gradient)" d="M18,-29C24.5,-27.4,31.6,-24.9,33.1,-19.9C34.5,-14.9,30.2,-7.5,28.3,-1.1C26.5,5.3,27.1,10.6,26.4,17C25.8,23.4,24,30.9,19.4,36.5C14.8,42.1,7.4,46,0.7,44.7C-5.9,43.5,-11.9,37.2,-16,31.2C-20,25.3,-22.2,19.7,-26.6,14.5C-31,9.4,-37.6,4.7,-38.8,-0.7C-40,-6.1,-35.8,-12.2,-31.7,-17.8C-27.5,-23.4,-23.5,-28.5,-18.2,-30.8C-13,-33.1,-6.5,-32.4,-0.4,-31.8C5.8,-31.2,11.5,-30.6,18,-29Z" width="100%" height="100%" transform="translate(50 50)" stroke-width="0" style="transition: all 0.3s ease 0s;" stroke="url(#sw-gradient)"></path>
              </svg>